<svg width="37" height="40" viewBox="0 0 37 40" fill="none" xmlns="http://www.w3.org/2000/svg">
<g clip-path="url(#clip0)">
<path d="M37.6865 47.5H8.16602C7.98394 47.5 7.80932 47.4218 7.68057 47.2826C7.55182 47.1434 7.47949 46.9547 7.47949 46.7578V0.742188C7.47949 0.545347 7.55182 0.356569 7.68057 0.217382C7.80932 0.0781945 7.98394 0 8.16602 0L30.5892 0C30.7713 4.20356e-05 30.9459 0.0782641 31.0746 0.217461L38.1719 7.89019C38.3007 8.02935 38.373 8.2181 38.373 8.41492V46.7578C38.373 46.9547 38.3007 47.1434 38.172 47.2826C38.0432 47.4218 37.8686 47.5 37.6865 47.5Z" fill="url(#paint0_linear)"/>
<path d="M4.04688 24.4527L6.79297 23.1412L8.70974 26.3215H4.04688V24.4527Z" fill="url(#paint1_linear)"/>
<path d="M37 47.5H7.47949C7.29741 47.5 7.1228 47.4218 6.99405 47.2826C6.8653 47.1434 6.79297 46.9547 6.79297 46.7578V0.742188C6.79297 0.545347 6.8653 0.356569 6.99405 0.217382C7.1228 0.0781945 7.29741 0 7.47949 0L30.1869 0L37.6865 8.10766V46.7578C37.6865 46.9547 37.6142 47.1434 37.4854 47.2826C37.3567 47.4218 37.1821 47.5 37 47.5Z" fill="url(#paint2_linear)"/>
<path d="M30.1887 0V7.36547C30.1887 7.56231 30.261 7.75109 30.3897 7.89028C30.5185 8.02946 30.6931 8.10766 30.8752 8.10766H37.6882L34.3243 3.72875L30.1887 0Z" fill="url(#paint3_linear)"/>
<path d="M30.8364 38.9625H5.26202C5.10242 38.9626 4.94437 38.9287 4.7969 38.8627C4.64943 38.7968 4.51544 38.7 4.40258 38.578C4.28973 38.456 4.20022 38.3111 4.13919 38.1517C4.07815 37.9923 4.04678 37.8214 4.04688 37.6489V25.762H30.8364C31.1586 25.7622 31.4676 25.9007 31.6954 26.147C31.9233 26.3933 32.0514 26.7273 32.0515 27.0757V37.6489C32.0515 37.9973 31.9235 38.3314 31.6956 38.5778C31.4677 38.8241 31.1587 38.9625 30.8364 38.9625Z" fill="url(#paint4_linear)"/>
<path d="M6.79297 23.1412H5.26065C5.10129 23.1411 4.94347 23.175 4.79621 23.2408C4.64895 23.3067 4.51514 23.4033 4.40242 23.5251C4.2897 23.6469 4.20029 23.7915 4.13928 23.9506C4.07828 24.1098 4.04688 24.2804 4.04688 24.4527C4.04678 24.625 4.07812 24.7957 4.13908 24.9549C4.20005 25.1142 4.28945 25.2589 4.40218 25.3808C4.51491 25.5026 4.64875 25.5993 4.79605 25.6652C4.94335 25.7311 5.10123 25.765 5.26065 25.7649H6.79297V23.1412Z" fill="url(#paint5_linear)"/>
<path d="M9.53906 34.905V29.8181C9.53897 29.7334 9.55432 29.6496 9.58423 29.5713C9.61413 29.4931 9.65801 29.422 9.71336 29.3621C9.7687 29.3022 9.83442 29.2546 9.90676 29.2222C9.97911 29.1898 10.0567 29.1731 10.135 29.1731C11.046 29.1353 11.9584 29.1673 12.8653 29.2689C13.2322 29.384 13.5512 29.6325 13.7682 29.9725C13.9852 30.3124 14.087 30.723 14.0564 31.1347C14.0835 31.5712 13.966 32.0038 13.725 32.3552C13.484 32.7066 13.1352 32.9538 12.741 33.0525C12.1372 33.1307 11.5289 33.1612 10.921 33.1438C10.8702 33.1438 10.8215 33.1656 10.7856 33.2045C10.7497 33.2433 10.7295 33.296 10.7295 33.3509V34.905C10.7295 34.9895 10.7141 35.0732 10.6842 35.1513C10.6543 35.2294 10.6104 35.3003 10.5552 35.36C10.4999 35.4198 10.4343 35.4672 10.3621 35.4995C10.2898 35.5319 10.2124 35.5485 10.1343 35.5485C9.97642 35.5485 9.82502 35.4807 9.7134 35.36C9.60177 35.2394 9.53906 35.0757 9.53906 34.905ZM10.7295 30.4593V31.8539C10.7295 31.9088 10.7497 31.9615 10.7856 32.0003C10.8215 32.0392 10.8702 32.061 10.921 32.061C11.3901 32.0959 11.8615 32.0622 12.3222 31.9608C12.4852 31.8907 12.6225 31.765 12.7133 31.6028C12.8041 31.4407 12.8433 31.2508 12.8252 31.0623C12.807 30.8737 12.7323 30.6968 12.6125 30.5583C12.4927 30.4199 12.3344 30.3275 12.1616 30.2953C11.7491 30.2569 11.335 30.2423 10.921 30.2515C10.8959 30.2516 10.871 30.2571 10.8478 30.2676C10.8246 30.2781 10.8035 30.2934 10.7858 30.3127C10.7681 30.332 10.754 30.3549 10.7445 30.38C10.735 30.4052 10.7301 30.4321 10.7302 30.4593H10.7295Z" fill="white"/>
<path d="M15.0313 29.8189C15.0312 29.7342 15.0465 29.6504 15.0764 29.5721C15.1063 29.4939 15.1502 29.4228 15.2055 29.3629C15.2609 29.303 15.3266 29.2555 15.399 29.223C15.4713 29.1906 15.5488 29.1739 15.6272 29.1739C16.5294 29.1157 17.4347 29.1565 18.3293 29.2956C18.6755 29.4167 18.989 29.6277 19.2423 29.9102C19.4955 30.1926 19.6809 30.538 19.782 30.9158C19.9213 31.4035 19.9865 31.9123 19.9749 32.4225C19.9839 32.8824 19.9227 33.3408 19.7937 33.7792C19.699 34.1647 19.5142 34.5174 19.2571 34.8033C18.9999 35.0893 18.679 35.2989 18.3252 35.412C17.4318 35.5487 16.5284 35.594 15.6272 35.5471C15.4695 35.5471 15.3182 35.4795 15.2065 35.3592C15.0948 35.2389 15.0318 35.0756 15.0313 34.9051V29.8189ZM16.2217 30.4601V34.2683C16.2217 34.3232 16.2419 34.3759 16.2778 34.4147C16.3137 34.4536 16.3624 34.4754 16.4132 34.4754C16.8865 34.5036 17.3612 34.4832 17.8309 34.4145C18.029 34.3695 18.2102 34.2616 18.3513 34.1047C18.4924 33.9477 18.5871 33.7489 18.6231 33.5335C18.7143 33.1525 18.7549 32.7595 18.744 32.3661C18.7567 31.9834 18.7159 31.6008 18.6231 31.2313C18.5711 31.002 18.4594 30.7937 18.3012 30.631C18.143 30.4683 17.945 30.358 17.7307 30.3132C17.2921 30.261 16.8508 30.2407 16.4098 30.2523C16.3593 30.2531 16.3112 30.2754 16.2759 30.3143C16.2405 30.3532 16.2208 30.4056 16.221 30.4601H16.2217Z" fill="white"/>
<path d="M20.9899 34.9033V29.8163C20.9899 29.6453 21.0528 29.4812 21.1647 29.3603C21.2765 29.2393 21.4283 29.1714 21.5865 29.1714H24.5338C24.6661 29.1714 24.7931 29.2282 24.8867 29.3294C24.9803 29.4306 25.0329 29.5678 25.0329 29.7109C25.0329 29.7818 25.0199 29.8519 24.9949 29.9173C24.9698 29.9827 24.933 30.0422 24.8866 30.0922C24.8403 30.1422 24.7853 30.1819 24.7247 30.209C24.6642 30.236 24.5993 30.2499 24.5338 30.2498H22.3753C22.3501 30.2498 22.3252 30.2551 22.3019 30.2656C22.2786 30.276 22.2574 30.2914 22.2396 30.3107C22.2219 30.33 22.2078 30.3529 22.1982 30.3781C22.1886 30.4033 22.1837 30.4303 22.1838 30.4576V31.5516C22.1837 31.5788 22.1886 31.6058 22.1982 31.631C22.2078 31.6562 22.2219 31.6791 22.2396 31.6985C22.2574 31.7178 22.2786 31.7331 22.3019 31.7435C22.3252 31.754 22.3501 31.7594 22.3753 31.7594H24.1466C24.2788 31.7594 24.4057 31.8161 24.4992 31.9171C24.5928 32.0182 24.6455 32.1552 24.6457 32.2982C24.6455 32.4412 24.5928 32.5784 24.4993 32.6795C24.4057 32.7807 24.2789 32.8376 24.1466 32.8378H22.3753C22.3502 32.8378 22.3253 32.8431 22.302 32.8535C22.2788 32.8639 22.2577 32.8792 22.2399 32.8984C22.2221 32.9176 22.208 32.9405 22.1984 32.9656C22.1887 32.9907 22.1838 33.0176 22.1838 33.0448V34.9003C22.1836 35.071 22.1207 35.2347 22.009 35.3554C21.8973 35.476 21.7458 35.5438 21.5879 35.5438C21.5097 35.5442 21.4323 35.5279 21.3599 35.4959C21.2875 35.464 21.2217 35.4169 21.1662 35.3574C21.1107 35.2979 21.0665 35.2272 21.0363 35.1493C21.006 35.0714 20.9903 34.9878 20.9899 34.9033Z" fill="white"/>
</g>
<defs>
<linearGradient id="paint0_linear" x1="22.9263" y1="-23.7404" x2="22.9263" y2="-21.8359" gradientUnits="userSpaceOnUse">
<stop stop-color="#F3F7FF"/>
<stop offset="0.99" stop-color="#B5D1FF"/>
</linearGradient>
<linearGradient id="paint1_linear" x1="6.37831" y1="22.5994" x2="6.37831" y2="88.8396" gradientUnits="userSpaceOnUse">
<stop stop-color="#FF5252"/>
<stop offset="1" stop-color="#D50000"/>
</linearGradient>
<linearGradient id="paint2_linear" x1="1041.73" y1="-257.877" x2="1041.73" y2="7313.91" gradientUnits="userSpaceOnUse">
<stop stop-color="#E3E3E3"/>
<stop offset="0.99" stop-color="#B6B6B6"/>
</linearGradient>
<linearGradient id="paint3_linear" x1="409.202" y1="-189.954" x2="409.202" y2="-32.4225" gradientUnits="userSpaceOnUse">
<stop stop-color="#AEAEAE"/>
<stop offset="0.99" stop-color="#BCC0C7"/>
</linearGradient>
<linearGradient id="paint4_linear" x1="771.263" y1="455.018" x2="771.263" y2="1147.18" gradientUnits="userSpaceOnUse">
<stop stop-color="#FF0000"/>
<stop offset="1" stop-color="#D50000"/>
</linearGradient>
<linearGradient id="paint5_linear" x1="28.7617" y1="65.9615" x2="28.7617" y2="137.689" gradientUnits="userSpaceOnUse">
<stop stop-color="#FF5252"/>
<stop offset="1" stop-color="#D50000"/>
</linearGradient>
<clipPath id="clip0">
<rect width="37" height="40" fill="white"/>
</clipPath>
</defs>
</svg>
